HIERARCHY
ROOT Hips
{
	OFFSET 13.680169 99.136658 -1.522606
	CHANNELS 6 Xposition Yposition Zposition Xrotation Yrotation Zrotation
	JOINT Chest
	{
		OFFSET -4.723035 11.452934 5.716416
		CHANNELS 3 Xrotation Yrotation Zrotation
		JOINT Chest2
		{
			OFFSET -8.154004 17.583763 9.131824
			CHANNELS 3 Xrotation Yrotation Zrotation
			JOINT Chest3
			{
				OFFSET -3.199997 14.017624 4.010758
				CHANNELS 3 Xrotation Yrotation Zrotation
				JOINT Neck
				{
					OFFSET -4.674025 15.499680 6.043974
					CHANNELS 3 Xrotation Yrotation Zrotation
					JOINT Head
					{
						OFFSET -3.730084 9.144669 3.505608
						CHANNELS 3 Xrotation Yrotation Zrotation
						End Site
						{
							OFFSET -3.721173 9.173523 3.439034
						}
					}
				}
				JOINT LeftCollar
				{
					OFFSET 0.600477 12.018646 7.549572
					CHANNELS 3 Xrotation Yrotation Zrotation
					JOINT LeftUpArm
					{
						OFFSET 14.278951 8.291901 -5.987923
						CHANNELS 3 Xrotation Yrotation Zrotation
						JOINT LeftLowArm
						{
							OFFSET 25.390593 16.023605 15.436617
							CHANNELS 3 Xrotation Yrotation Zrotation
							JOINT LeftHand
							{
								OFFSET -27.402649 1.700806 12.130535
								CHANNELS 3 Xrotation Yrotation Zrotation
								End Site
								{
									OFFSET -5.989001 0.371765 2.651207
								}
							}
						}
					}
				}
				JOINT RightCollar
				{
					OFFSET -7.492085 9.746002 7.119894
					CHANNELS 3 Xrotation Yrotation Zrotation
					JOINT RightUpArm
					{
						OFFSET -15.323970 -5.319061 -6.736462
						CHANNELS 3 Xrotation Yrotation Zrotation
						JOINT RightLowArm
						{
							OFFSET -12.151905 -30.516525 7.797928
							CHANNELS 3 Xrotation Yrotation Zrotation
							JOINT RightHand
							{
								OFFSET -16.315315 -2.254463 25.093472
								CHANNELS 3 Xrotation Yrotation Zrotation
								End Site
								{
									OFFSET -3.565876 -0.492752 5.484428
								}
							}
						}
					}
				}
			}
		}
	}
	JOINT LeftUpLeg
	{
		OFFSET 8.904130 1.503181 4.344658
		CHANNELS 3 Xrotation Yrotation Zrotation
		JOINT LeftLowLeg
		{
			OFFSET -6.761537 -45.226597 12.362272
			CHANNELS 3 Xrotation Yrotation Zrotation
			JOINT LeftFoot
			{
				OFFSET -1.212908 -35.378906 -27.339153
				CHANNELS 3 Xrotation Yrotation Zrotation
				JOINT LeftToe
				{
					OFFSET -2.728551 -21.075066 10.390201
					CHANNELS 3 Xrotation Yrotation Zrotation
					End Site
					{
						OFFSET -1.003567 -9.782154 21.514208
					}
				}
			}
		}
	}
	JOINT RightUpLeg
	{
		OFFSET -8.904064 -1.503349 -4.344744
		CHANNELS 3 Xrotation Yrotation Zrotation
		JOINT RightLowLeg
		{
			OFFSET 17.403204 -35.913506 -25.521791
			CHANNELS 3 Xrotation Yrotation Zrotation
			JOINT RightFoot
			{
				OFFSET 19.158667 -23.442345 -32.923893
				CHANNELS 3 Xrotation Yrotation Zrotation
				JOINT RightToe
				{
					OFFSET 12.847462 -17.706516 -8.998825
					CHANNELS 3 Xrotation Yrotation Zrotation
					End Site
					{
						OFFSET 5.949821 -22.431984 4.578415
					}
				}
			}
		}
	}
}
MOTION
Frames: 16
Frame Time: 0.033333
15.968948 89.301910 -5.432763 0.946383 4.053307 7.713922 6.807087 1.066231 3.165592 1.821624 2.539890 -1.362379 -2.997707 -1.038850 -0.925046 -0.537892 1.679539 -1.017785 -0.000003 -0.000002 0.000001 2.259409 -2.128901 1.185644 -1.527173 1.059460 3.392467 -182.570834 164.141945 169.605946 0.000001 0.000001 0.000000 -0.153321 9.140746 -9.218509 -12.140452 13.495971 -24.714531 34.958049 -12.717351 17.405465 -0.000002 -0.000005 0.000000 -7.290809 0.579059 -11.409262 4.113470 -2.291130 3.251080 -0.232249 0.819484 -0.056450 -0.000002 0.000000 0.000001 -5.602711 -4.847836 3.539849 2.197289 6.977770 -5.008338 -4.498898 1.455990 6.998961 -0.000001 0.000002 0.000001 
15.960443 89.271683 -5.514982 0.917134 4.003080 7.858928 6.940155 1.137046 3.166774 2.246919 2.907270 -1.449430 -3.324710 -1.313898 -0.890231 -0.713913 1.785662 -1.181821 -0.000002 -0.000002 0.000003 1.823839 -1.706636 1.086405 -1.681174 1.226808 3.222943 -182.787637 165.016988 170.138906 0.000002 0.000001 0.000000 -0.206756 9.705719 -9.608299 -12.169124 13.406088 -24.977421 34.682311 -13.009250 17.087637 0.000003 -0.000004 -0.000000 -7.253208 0.576075 -11.399175 4.164195 -2.130204 2.974872 -0.408396 1.019585 -0.053159 0.000001 0.000000 -0.000001 -5.176223 -4.630456 3.449299 1.966685 6.824666 -5.263429 -5.126629 1.588987 7.513868 -0.000002 -0.000002 0.000004 
15.958962 89.235634 -5.609919 0.521775 3.793151 7.831729 7.027599 1.166070 3.210554 2.575334 2.883223 -1.328425 -3.554262 -1.497496 -1.072238 -0.197655 1.975163 -1.291679 -0.000003 -0.000003 0.000001 2.106809 -2.173710 1.241704 -1.901535 1.442655 2.927898 -181.599307 164.369404 169.666011 0.000002 -0.000001 0.000002 -0.326896 9.264437 -9.361336 -12.218532 13.170304 -24.850598 33.730128 -13.073779 16.485985 -0.000000 -0.000001 0.000000 -7.548030 0.605537 -11.266923 4.952244 -2.160514 2.615408 -0.351347 1.388685 0.333589 -0.000000 0.000000 -0.000001 -5.133437 -4.695211 3.519927 2.591736 7.266935 -5.350634 -5.463092 1.622339 7.687194 -0.000001 0.000007 -0.000002 
15.957140 89.203659 -5.698154 0.423643 3.912221 7.964144 7.204803 1.224783 3.284765 2.067755 2.622496 -1.387950 -3.091703 -1.372721 -1.099376 -0.205081 1.961725 -1.421891 -0.000002 -0.000001 0.000003 1.754626 -2.029723 1.098505 -2.088343 1.188901 2.759987 -181.318587 164.900820 169.746361 0.000001 0.000002 -0.000001 -0.507085 9.057399 -9.432465 -12.205971 12.687624 -24.843997 32.474483 -13.067917 15.856078 0.000001 -0.000005 -0.000002 -7.680771 0.643199 -11.341256 4.821467 -1.970761 2.558109 -0.723250 1.567022 0.125942 -0.000002 0.000000 -0.000001 -5.059984 -4.617875 3.335669 2.387037 6.948430 -5.351871 -5.602428 1.739926 7.962982 0.000000 0.000005 -0.000000 
15.957403 89.175217 -5.801003 0.871908 3.858002 7.905922 6.593115 0.984801 3.229477 2.410847 2.825403 -1.396275 -3.361921 -1.097590 -0.880232 -0.118910 2.057043 -1.441485 -0.000001 -0.000001 -0.000001 1.544183 -1.703020 0.938514 -1.930442 1.171812 2.553745 -182.081300 165.385927 170.201170 0.000004 -0.000003 0.000001 -0.507672 8.428634 -9.553374 -12.515544 13.162709 -24.742487 32.332176 -13.255247 15.449610 -0.000000 -0.000003 -0.000003 -7.821573 0.630551 -11.225611 4.236485 -1.845480 2.428595 -0.611168 1.758723 0.321722 -0.000002 0.000001 0.000001 -5.430764 -4.694505 3.220561 2.368967 6.939071 -5.338643 -5.261285 1.830033 8.181695 0.000000 0.000002 -0.000000 
15.955141 89.144493 -5.906937 0.981587 3.971079 7.972822 6.344013 0.898615 3.215899 2.279976 2.717575 -1.374560 -3.383185 -0.946139 -0.877104 0.009273 2.067288 -1.507840 -0.000003 -0.000002 0.000003 1.590545 -1.790114 0.955245 -1.989308 1.374356 2.149596 -181.626819 165.552966 170.262027 0.000002 -0.000001 -0.000000 -0.565236 8.635512 -9.647992 -12.304702 12.891187 -24.848915 32.090896 -13.394909 15.294897 0.000001 -0.000001 -0.000001 -7.625757 0.655507 -11.297659 4.060206 -1.798131 2.654829 -0.822161 1.362650 -0.131827 0.000001 0.000000 0.000002 -5.521211 -4.758564 3.187769 2.087000 6.723949 -5.567361 -5.437161 1.993215 8.477121 0.000000 0.000001 0.000004 
15.945353 89.121246 -6.003392 0.763720 3.965630 8.051640 6.406469 0.928152 3.223509 2.549905 2.876514 -1.408668 -3.577574 -1.063041 -0.852834 0.128521 2.209226 -1.540227 -0.000004 -0.000002 0.000003 1.340973 -1.565048 0.843311 -2.121906 1.455707 1.975384 -181.024930 166.001300 170.578264 0.000002 -0.000006 0.000001 -0.612465 8.937386 -9.796894 -12.248108 12.627054 -24.990501 32.015777 -13.521003 15.115226 -0.000001 -0.000001 -0.000003 -7.363425 0.706795 -11.286297 4.055834 -1.756806 2.665838 -0.464416 1.050128 0.003749 -0.000002 0.000001 -0.000001 -5.393057 -4.758077 3.181315 2.229553 6.759351 -5.540130 -5.811000 1.867801 8.375753 0.000001 0.000003 0.000002 
15.933765 89.104385 -6.103344 0.964676 3.998552 8.059107 6.279877 0.895221 3.149021 2.561937 2.867253 -1.398379 -3.570355 -1.038078 -0.821557 0.138471 2.334484 -1.545025 -0.000003 -0.000002 0.000001 1.339035 -1.391722 0.892008 -2.082980 1.695641 1.953752 -181.403650 166.145841 170.759674 0.000002 -0.000003 0.000000 -0.493533 9.263418 -9.907896 -11.826161 12.443198 -25.197995 31.998944 -13.911383 14.755456 0.000003 -0.000003 -0.000002 -7.660752 0.701882 -11.203368 4.070308 -1.723028 2.493337 -0.399889 1.051344 0.085005 -0.000000 0.000000 0.000001 -5.498353 -4.787417 3.147372 2.167461 6.719591 -5.590746 -5.524603 1.920987 8.380171 -0.000001 0.000006 0.000002 
15.914124 89.102097 -6.192421 -0.535553 4.609797 8.390207 8.161731 1.386064 3.768849 1.308063 2.010854 -1.375188 -2.459621 -2.118469 -1.699925 0.232846 2.974765 -1.826656 -0.000004 -0.000001 -0.000000 0.870900 -0.938909 1.123846 -2.518174 2.299006 1.751451 -180.770327 166.249741 170.724936 0.000002 -0.000001 -0.000000 -0.521513 10.899694 -10.134254 -11.847508 12.099837 -25.414386 32.069418 -14.447090 14.849009 -0.000000 -0.000003 -0.000004 -5.639643 0.822182 -11.707522 3.392596 -2.005572 3.354012 -0.120624 0.290107 -0.617772 0.000001 0.000000 -0.000001 -4.655592 -4.556417 3.418432 2.121833 6.568073 -5.025932 -5.822571 1.467057 7.286127 0.000003 0.000001 0.000003 
15.892323 89.101112 -6.276189 -0.009558 4.223497 8.342309 7.753192 1.346043 3.466214 2.002294 2.550233 -1.427846 -3.275312 -1.194867 -1.111449 0.104598 2.429430 -1.510921 -0.000003 -0.000000 -0.000001 1.770497 -1.673198 1.039155 -2.250440 2.324852 1.964639 -182.482137 166.462925 170.965946 0.000001 0.000001 -0.000000 -0.383039 9.707992 -10.203787 -11.843242 12.698169 -25.716499 31.905398 -14.536213 14.430139 -0.000000 0.000001 -0.000001 -6.740040 0.748425 -11.491440 3.728152 -2.009810 2.674240 -0.156675 0.946617 -0.092801 -0.000000 0.000001 -0.000001 -5.116750 -4.559397 3.198794 2.294950 6.782713 -4.988342 -5.503669 1.615525 7.565890 0.000001 0.000004 0.000004 
15.874387 89.097008 -6.369471 -0.305208 4.232096 8.372099 7.446860 1.168308 3.538382 2.476001 2.712945 -1.332455 -3.565870 -1.326652 -1.217754 0.562110 2.792534 -1.534430 -0.000001 0.000000 0.000002 2.024254 -1.752130 0.949292 -1.999977 1.958650 1.928064 -181.985145 165.758350 170.556736 0.000002 -0.000005 0.000000 -0.319495 9.625518 -9.909302 -11.493503 12.312840 -25.757734 31.089221 -14.333770 14.047129 0.000001 -0.000006 -0.000002 -6.908126 0.734610 -11.545891 4.230818 -2.256833 2.591196 -0.558334 1.380548 -0.293521 -0.000002 0.000001 -0.000003 -5.568889 -4.791773 3.275857 3.005663 7.300223 -4.805926 -5.720996 1.451521 7.240534 -0.000002 0.000001 0.000003 
15.848894 89.097786 -6.454729 -0.272100 4.521042 8.462706 7.252281 1.019044 3.681408 2.741934 2.911884 -1.349165 -3.827171 -1.336823 -1.182451 0.694206 2.856457 -1.503337 -0.000003 -0.000002 0.000001 2.232989 -2.006042 0.805716 -1.855264 1.877303 1.891990 -183.410974 166.222571 170.877714 0.000002 -0.000005 0.000000 -0.305827 9.479461 -10.009247 -11.701364 12.739710 -26.042847 31.603432 -14.440415 14.208692 -0.000000 -0.000003 -0.000002 -6.983627 0.745488 -11.660720 4.410951 -2.283809 2.797848 -0.886303 1.168958 -0.749884 -0.000000 0.000000 -0.000000 -5.799657 -4.902910 3.287267 3.310204 7.339560 -4.643327 -5.994497 1.235171 6.770521 -0.000001 0.000004 0.000004 
15.821546 89.095306 -6.534307 -0.501514 4.467195 8.492165 7.646972 1.191596 3.693628 2.587237 2.891195 -1.382270 -3.615555 -1.251366 -1.099538 0.359985 2.669297 -1.550676 -0.000001 0.000001 0.000000 2.017324 -1.796694 0.831011 -1.595881 1.359538 1.896615 -183.518003 165.581366 170.421826 0.000002 -0.000006 0.000001 -0.275489 9.194797 -10.020850 -11.941139 13.148036 -26.086909 31.742587 -14.875445 14.018772 0.000001 -0.000001 0.000000 -7.129471 0.755292 -11.618477 4.846736 -2.162211 2.788754 -0.439718 0.831140 -0.509370 -0.000000 0.000000 -0.000000 -5.931641 -5.066742 3.397892 3.647996 7.549224 -4.886038 -5.650320 1.484617 7.151550 0.000002 0.000003 0.000002 
15.796201 89.093307 -6.616043 -0.161740 4.516988 8.460874 7.078109 0.983612 3.643959 2.939214 3.096574 -1.360368 -3.656901 -1.449219 -1.175845 0.387010 2.828985 -1.525553 -0.000003 -0.000002 0.000001 1.652772 -1.331715 0.708708 -1.692419 1.510126 1.973124 -183.626631 166.204198 170.807677 0.000002 -0.000004 0.000002 -0.228587 9.329055 -9.919929 -11.844012 13.030493 -25.977223 31.301712 -14.934519 13.615662 0.000001 -0.000003 -0.000003 -6.976033 0.780338 -11.573875 4.334309 -2.118644 2.860061 -0.575742 0.916201 -0.599981 0.000001 -0.000000 0.000000 -6.073387 -5.089582 3.322165 3.423175 7.480116 -4.781695 -5.609335 1.348649 6.955185 -0.000003 0.000001 0.000003 
15.766264 89.095650 -6.701344 0.202116 4.370784 8.348260 7.107710 1.021277 3.573122 2.478434 2.914549 -1.411737 -3.422636 -0.964878 -0.863892 0.089825 2.847559 -1.569650 -0.000001 -0.000002 0.000001 1.763625 -1.528931 0.858860 -1.636543 1.539989 1.818031 -184.190135 166.381332 170.834670 0.000002 -0.000001 -0.000000 -0.241880 9.338381 -10.038083 -11.848053 13.087168 -26.200394 31.319388 -14.995523 13.693573 0.000002 -0.000004 -0.000000 -7.273194 0.695962 -11.338800 4.164341 -2.123987 2.595055 -0.781406 1.251695 -0.564781 -0.000002 0.000000 0.000001 -6.017302 -4.955169 3.244913 2.957892 7.212146 -4.693712 -5.191063 1.385840 6.956797 0.000002 0.000004 0.000001 
15.731318 89.093964 -6.781958 -0.044353 4.493520 8.350514 7.311677 1.029811 3.722500 2.607909 2.828855 -1.312604 -3.683358 -1.191036 -1.120548 0.338175 3.042654 -1.615617 -0.000001 -0.000002 0.000003 1.946449 -1.716108 0.875254 -1.516044 1.238903 1.854065 -183.423774 165.476851 170.307652 0.000002 -0.000005 0.000001 -0.262836 9.240558 -9.854821 -11.926574 13.137195 -26.053241 31.005070 -14.947572 13.506852 -0.000000 0.000001 -0.000001 -7.345341 0.724885 -11.412652 4.679834 -2.313358 2.791397 -0.606934 1.023685 -0.651994 -0.000002 0.000001 -0.000001 -6.000682 -5.099561 3.439189 3.276988 7.491565 -4.727874 -5.741941 1.332183 7.055387 -0.000000 0.000007 0.000000 
